<svg width="26" height="26" viewBox="0 0 26 26" fill="currentColor" xmlns="http://www.w3.org/2000/svg">
<path d="M24.2 12.8395C24.2 15.8068 23.7027 18.2138 23.089 18.2138C22.4754 18.2138 21.9783 15.8075 21.9783 12.8395C21.9783 9.87145 22.4756 7.46509 23.089 7.46509C23.7024 7.46509 24.2 9.87123 24.2 12.8395Z" />
<path d="M21.3649 12.8393C21.3649 16.152 19.9507 18.8386 18.2062 18.8386C16.4616 18.8386 15.0474 16.152 15.0474 12.8393C15.0474 9.52663 16.4614 6.84009 18.2059 6.84009C19.9505 6.84009 21.3647 9.52577 21.3647 12.8393" />
<path d="M14.4348 12.8393C14.4348 16.3587 11.6063 19.2117 8.11738 19.2117C4.62849 19.2117 1.7998 16.358 1.7998 12.8393C1.7998 9.32066 4.62827 6.46683 8.11738 6.46683C11.6065 6.46683 14.4348 9.32001 14.4348 12.8393Z" />
</svg>
