<svg width="26" height="26" viewBox="0 0 26 26" fill="currentColor" xmlns="http://www.w3.org/2000/svg">
<path d="M20.9685 4.27613C18.1542 5.51028 6.08668 10.8026 2.75243 12.2451C0.516331 13.169 1.82537 14.0353 1.82537 14.0353C1.82537 14.0353 3.73415 14.7281 5.37051 15.2479C7.00664 15.7676 7.87926 15.1902 7.87926 15.1902L15.5693 9.70435C18.2962 7.741 17.6418 9.35779 16.9872 10.0509C15.5693 11.5524 13.2241 13.9197 11.2606 15.8255C10.388 16.6339 10.8242 17.3267 11.2062 17.6733C12.6241 18.9438 16.4966 21.5424 16.7145 21.7155C17.8667 22.5791 20.133 23.8222 20.4777 21.1958L21.8412 12.1298C22.2776 9.06936 22.7138 6.23972 22.7682 5.43133C22.932 3.46773 20.9685 4.27613 20.9685 4.27613Z" />
</svg>
