<svg width="26" height="26" viewBox="0 0 26 26" fill="currentColor" xmlns="http://www.w3.org/2000/svg">
<path fill-rule="evenodd" clip-rule="evenodd" d="M12.5625 0.558458C14.2232 0.558458 15.884 0.550771 17.5446 0.560662C19.107 0.56999 20.5743 0.926286 21.8457 1.87609C23.506 3.11647 24.3557 4.81079 24.5138 6.85527C24.5695 7.5748 24.5522 8.30059 24.5531 9.02352C24.5569 11.8271 24.5548 14.6307 24.5545 17.4343C24.5544 18.5794 24.3952 19.6974 23.9106 20.7444C22.9277 22.8684 21.2132 24.0295 18.951 24.4319C18.4794 24.5158 17.9928 24.5472 17.5129 24.5486C14.2004 24.5584 10.8879 24.5561 7.57537 24.5527C5.85283 24.5509 4.27741 24.096 2.93489 22.9785C1.57089 21.8432 0.851129 20.3583 0.62723 18.6174C0.588605 18.3172 0.564957 18.0126 0.564675 17.7101C0.561441 14.2279 0.540418 10.7455 0.574543 7.26374C0.593199 5.36141 1.22662 3.67476 2.64276 2.34573C3.81743 1.24342 5.24526 0.667443 6.83196 0.611076C8.73986 0.543294 10.6521 0.595021 12.5624 0.595021C12.5624 0.58281 12.5624 0.570623 12.5625 0.558458ZM12.5437 22.3377C14.1417 22.3377 15.7396 22.3441 17.3375 22.3333C17.7554 22.3304 18.1793 22.3097 18.5894 22.2355C20.1556 21.9524 21.3464 21.1668 21.9705 19.6417C22.2875 18.867 22.3911 18.0357 22.4046 17.2305C22.457 14.107 22.4275 10.9821 22.4238 7.85762C22.4234 7.51914 22.4197 7.17688 22.3718 6.8429C22.1571 5.34318 21.5069 4.11395 20.1267 3.36644C19.3563 2.94922 18.52 2.7917 17.6508 2.79142C14.3032 2.79044 10.9556 2.78945 7.60797 2.79346C7.30544 2.79383 7.00024 2.81057 6.70089 2.85264C4.99591 3.09203 3.74006 3.93231 3.11156 5.58545C2.85792 6.25255 2.77687 6.95158 2.77673 7.66129C2.77624 10.9285 2.7731 14.1957 2.78102 17.463C2.78198 17.8628 2.81179 18.2682 2.88335 18.661C3.20076 20.4037 4.1725 21.6015 5.90311 22.0832C6.47981 22.2436 7.09628 22.3144 7.69659 22.3265C9.31176 22.359 10.9279 22.3376 12.5437 22.3377Z"/>
<path fill-rule="evenodd" clip-rule="evenodd" d="M18.7406 12.5174C18.7391 15.934 15.9514 18.713 12.5338 18.7047C9.11496 18.6964 6.36166 15.9368 6.35967 12.5165C6.35768 9.09997 9.14121 6.32076 12.5613 6.32448C15.9519 6.32814 18.7421 9.12447 18.7406 12.5174ZM12.5525 16.4741C14.7323 16.4757 16.5277 14.6817 16.5239 12.5055C16.5201 10.3444 14.7293 8.55027 12.5672 8.54148C10.3905 8.53265 8.59603 10.3212 8.59141 12.5042C8.58682 14.6902 10.3649 16.4723 12.5525 16.4741Z"/>
<path fill-rule="evenodd" clip-rule="evenodd" d="M18.97 7.57133C18.1961 7.56442 17.5861 6.94515 17.5886 6.16902C17.591 5.38408 18.2163 4.76863 19.0059 4.77402C19.771 4.77932 20.3944 5.41077 20.3921 6.17802C20.3898 6.95615 19.7547 7.57834 18.97 7.57133Z"/>
</svg>
