<svg width="26" height="26" viewBox="0 0 26 26" fill="currentColor" xmlns="http://www.w3.org/2000/svg">
<path d="M13.5079 0.575777C14.8166 0.555527 16.1179 0.567527 17.4176 0.555527C17.4964 2.08628 18.0469 3.64553 19.1674 4.72778C20.2856 5.83703 21.8674 6.34478 23.4064 6.51653V10.5433C21.9641 10.496 20.5151 10.196 19.2064 9.57503C18.6364 9.31703 18.1054 8.98478 17.5856 8.64503C17.5789 11.567 17.5976 14.4853 17.5669 17.3953C17.4889 18.7933 17.0276 20.1845 16.2146 21.3365C14.9066 23.2543 12.6364 24.5045 10.3046 24.5435C8.87436 24.6253 7.44561 24.2353 6.22686 23.5168C4.20711 22.3258 2.78586 20.1455 2.57886 17.8055C2.55486 17.3053 2.54661 16.8058 2.56686 16.3175C2.74686 14.4148 3.68811 12.5945 5.14911 11.3563C6.80511 9.91403 9.12486 9.22703 11.2969 9.63353C11.3171 11.1148 11.2579 12.5945 11.2579 14.0758C10.2656 13.7548 9.10611 13.8448 8.23911 14.447C7.60611 14.8573 7.12536 15.4858 6.87486 16.1968C6.66786 16.7038 6.72711 17.267 6.73911 17.8055C6.97686 19.4465 8.55486 20.8258 10.2394 20.6765C11.3561 20.6645 12.4264 20.0165 13.0084 19.0678C13.1966 18.7355 13.4074 18.3958 13.4186 18.005C13.5169 16.2163 13.4779 14.435 13.4899 12.6463C13.4981 8.61503 13.4779 4.59503 13.5086 0.576527L13.5079 0.575777Z" fill="currentColor"/>
</svg>
