<svg width="48" height="49" viewBox="0 0 48 49" fill="currentColor" xmlns="http://www.w3.org/2000/svg">
<path fill-rule="evenodd" clip-rule="evenodd" d="M15.1759 9.64124C14.4531 9.95159 13.1062 10.4751 12.183 10.8043C8.8507 11.993 8.65159 12.2466 6.12125 18.5242C4.62477 22.2367 3.78847 25.9845 3.56922 29.9616L3.42969 32.4911L4.65193 33.7501C6.02465 35.1643 7.99864 36.5819 9.48635 37.2224C10.55 37.6802 14.2636 38.362 14.7251 38.1843C15.1496 38.0206 17.0682 35.2482 16.9217 35.0099C16.8509 34.8947 16.6755 34.7997 16.532 34.7984C15.7413 34.792 11.5348 32.1147 11.8377 31.8108C11.88 31.7683 12.6694 32.1308 13.5923 32.6164C16.5175 34.1557 18.0519 34.5417 23.1606 35.0229C25.6583 35.2583 28.014 35.0625 31.2683 34.3497C32.2884 34.1262 33.1558 33.976 33.1956 34.016C33.2355 34.056 32.7646 34.2707 32.1493 34.4928C30.9306 34.933 30.3002 35.4615 30.7948 35.6287C31.1286 35.7413 31.2771 35.9087 32.1567 37.165C32.809 38.0965 32.816 38.0998 34.194 38.0998C36.0627 38.0998 37.4755 37.6452 40.5744 36.0468C43.4693 34.5535 44.748 33.4921 44.5533 32.7442C44.4867 32.4886 44.322 31.09 44.1873 29.6359C43.7448 24.8649 42.8218 20.7727 41.3713 17.1539C40.6572 15.3718 39.8584 13.6114 39.5962 13.2418C39.0414 12.459 35.7867 10.8211 32.664 9.75275C30.4515 8.9959 30.0301 8.94399 29.1962 9.32539C28.1862 9.7875 28.6324 10.2127 30.7774 10.8314C32.7742 11.4072 34.6382 12.1412 34.4878 12.2923C34.445 12.3352 33.9759 12.216 33.4451 12.0275C30.4329 10.9579 22.7085 10.5133 18.251 11.153C17.0509 11.3252 16.0345 11.4314 15.9925 11.3892C15.9504 11.347 16.39 11.1373 16.9696 10.9236C19.6656 9.92871 19.8833 9.75605 19.0236 9.29393C18.2751 8.89186 16.5607 9.04649 15.1759 9.64124ZM19.6684 22.7582C20.8705 23.5798 21.3097 24.3513 21.3046 25.6337C21.2983 27.2987 21.0821 27.8519 20.1619 28.5575C18.0762 30.1569 14.8484 28.471 14.8493 25.7826C14.8502 23.1073 17.6283 21.364 19.6684 22.7582ZM31.9576 22.7162C32.5834 23.0367 32.9632 23.4381 33.2583 24.0909C33.8035 25.2967 33.7899 25.92 33.1919 27.1106C32.4115 28.6648 30.273 29.5164 28.8214 28.8513C28.0909 28.5163 27.2851 27.1575 27.1609 26.0509C27.0281 24.8684 27.747 23.1768 28.6111 22.6384C29.4152 22.1375 30.8953 22.1718 31.9576 22.7162Z" />
</svg>
