<svg width="48" height="48" viewBox="0 0 48 48" fill="currentColor" xmlns="http://www.w3.org/2000/svg">
<path d="M33.7079 32.8686C33.28 31.552 32.0457 30.581 30.581 30.581H28.9353V25.6439C28.9353 25.2074 28.7619 24.7888 28.4533 24.4802C28.1447 24.1715 27.7261 23.9982 27.2896 23.9982H17.4153V20.7067H20.7067C21.1432 20.7067 21.5618 20.5333 21.8704 20.2247C22.1791 19.9161 22.3524 19.4975 22.3524 19.061V15.7696H25.6439C26.5168 15.7696 27.354 15.4228 27.9713 14.8056C28.5885 14.1883 28.9353 13.3511 28.9353 12.4782V11.8034C33.7572 13.7454 37.1639 18.4686 37.1639 23.9982C37.1639 27.4212 35.8473 30.5316 33.7079 32.8686ZM22.3524 37.0487C15.8519 36.2423 10.8324 30.7127 10.8324 23.9982C10.8324 22.9778 10.9641 21.9904 11.178 21.0523L19.061 28.9353V30.581C19.061 31.454 19.4078 32.2911 20.0251 32.9084C20.6423 33.5257 21.4795 33.8724 22.3524 33.8724V37.0487ZM23.9982 7.54102C21.837 7.54102 19.697 7.96669 17.7003 8.79374C15.7036 9.62079 13.8894 10.833 12.3612 12.3612C9.27489 15.4475 7.54102 19.6335 7.54102 23.9982C7.54102 28.3629 9.27489 32.5488 12.3612 35.6351C13.8894 37.1633 15.7036 38.3755 17.7003 39.2026C19.697 40.0296 21.837 40.4553 23.9982 40.4553C28.3629 40.4553 32.5488 38.7214 35.6351 35.6351C38.7214 32.5488 40.4553 28.3629 40.4553 23.9982C40.4553 21.837 40.0296 19.697 39.2026 17.7003C38.3755 15.7036 37.1633 13.8894 35.6351 12.3612C34.1069 10.833 32.2927 9.62079 30.296 8.79374C28.2994 7.96669 26.1593 7.54102 23.9982 7.54102Z" />
</svg>
