<svg width="26" height="26" viewBox="0 0 26 26" fill="none" xmlns="http://www.w3.org/2000/svg">
<g clip-path="url(#clip0_15717_497)">
<path fill-rule="evenodd" clip-rule="evenodd" d="M7.40738 3.88863C6.98573 4.06966 6.20005 4.37503 5.66149 4.5671C3.71768 5.26046 3.60153 5.4084 2.1255 9.07034C1.25255 11.236 0.764712 13.4222 0.636812 15.7422L0.55542 17.2177L1.26839 17.9521C2.06915 18.7771 3.22064 19.604 4.08847 19.9777C4.70894 20.2447 6.87521 20.6424 7.14443 20.5387C7.39205 20.4433 8.51121 18.826 8.42573 18.687C8.38446 18.6198 8.28212 18.5644 8.19843 18.5636C7.73716 18.5599 5.28341 16.9982 5.46012 16.8208C5.48478 16.7961 5.94527 17.0075 6.48358 17.2908C8.18999 18.1887 9.08504 18.4139 12.0651 18.6946C13.5221 18.8319 14.8963 18.7177 16.7946 18.3019C17.3897 18.1715 17.8956 18.0839 17.9189 18.1072C17.9421 18.1306 17.6674 18.2558 17.3085 18.3854C16.5976 18.6421 16.2299 18.9504 16.5184 19.048C16.7131 19.1137 16.7997 19.2113 17.3129 19.9442C17.6934 20.4875 17.6975 20.4895 18.5013 20.4895C19.5913 20.4895 20.4155 20.2243 22.2232 19.2919C23.9118 18.4208 24.6578 17.8016 24.5442 17.3654C24.5053 17.2163 24.4093 16.4004 24.3307 15.5522C24.0726 12.7691 23.5341 10.382 22.688 8.271C22.2715 7.23148 21.8055 6.20453 21.6526 5.98898C21.3289 5.53234 19.4303 4.57685 17.6088 3.95368C16.3181 3.51218 16.0723 3.4819 15.5859 3.70438C14.9967 3.97395 15.257 4.22196 16.5083 4.58288C17.6731 4.91879 18.7604 5.34694 18.6726 5.43508C18.6477 5.4601 18.374 5.39056 18.0644 5.2806C16.3073 4.65666 11.8014 4.39735 9.20119 4.77046C8.50112 4.87093 7.90825 4.9329 7.88372 4.90826C7.85919 4.88363 8.11563 4.76136 8.45372 4.63664C10.0263 4.05632 10.1534 3.9556 9.65185 3.68603C9.21525 3.45149 8.21516 3.54169 7.40738 3.88863ZM10.028 11.5402C10.7292 12.0194 10.9854 12.4695 10.9825 13.2175C10.9788 14.1888 10.8527 14.5115 10.3159 14.9231C9.09923 15.8561 7.21636 14.8727 7.21687 13.3044C7.21738 11.7438 8.83793 10.7269 10.028 11.5402ZM17.1967 11.5157C17.5618 11.7026 17.7833 11.9368 17.9554 12.3176C18.2735 13.021 18.2655 13.3846 17.9167 14.0791C17.4615 14.9857 16.214 15.4825 15.3673 15.0945C14.9411 14.8991 14.4711 14.1064 14.3986 13.4609C14.3212 12.7712 14.7405 11.7844 15.2446 11.4703C15.7137 11.1781 16.577 11.1981 17.1967 11.5157Z" fill="black"/>
</g>
<defs>
<clipPath id="clip0_15717_497">
<rect width="24.8889" height="24.8889" fill="white" transform="translate(0.55542 0.555588)"/>
</clipPath>
</defs>
</svg>
