<svg width="26" height="26" viewBox="0 0 26 26" fill="none" xmlns="http://www.w3.org/2000/svg">
<g clip-path="url(#clip0_15717_510)">
<path d="M1.98328 14.1169L2.06602 13.9831L7.13239 5.91397C7.14936 5.88745 7.17301 5.86605 7.20088 5.85202C7.22874 5.83798 7.25979 5.83182 7.29079 5.83419C7.32179 5.83655 7.3516 5.84735 7.3771 5.86545C7.4026 5.88356 7.42286 5.9083 7.43576 5.9371C8.27934 7.86846 9.01261 10.2707 8.66869 11.7659C8.52593 12.3805 8.12523 13.2132 7.67261 13.9831C7.61455 14.0957 7.55121 14.2054 7.48281 14.3118C7.46642 14.3356 7.4445 14.3548 7.41902 14.3678C7.39353 14.3808 7.36528 14.3871 7.3368 14.3862H2.13416C2.1031 14.3867 2.0725 14.3786 2.04559 14.3628C2.01869 14.347 1.99649 14.3241 1.98135 14.2964C1.96621 14.2688 1.9587 14.2376 1.95961 14.2059C1.96052 14.1743 1.96983 14.1435 1.98653 14.1169H1.98328ZM24.5557 16.8925C24.5561 16.9278 24.5463 16.9624 24.5275 16.9921C24.5088 17.0217 24.4819 17.0451 24.4502 17.0594C24.056 17.2295 22.7144 17.8607 22.1563 18.6487C20.7319 20.6676 19.645 23.5556 17.2116 23.5556H7.06588C6.20926 23.5543 5.36129 23.3811 4.57042 23.0459C3.77956 22.7107 3.06131 22.2201 2.45672 21.602C1.85212 20.984 1.37304 20.2507 1.04686 19.444C0.720666 18.6374 0.553761 17.7731 0.55568 16.9008V16.7818C0.55568 16.686 0.633549 16.6067 0.730885 16.6067H6.38452C6.49808 16.6067 6.5792 16.7108 6.57109 16.8248C6.52891 17.1981 6.59866 17.5831 6.77387 17.9317C7.10806 18.6256 7.80564 19.0585 8.55675 19.0585H11.3568V16.833H8.58595C8.55348 16.8327 8.52173 16.8233 8.4941 16.8059C8.46647 16.7886 8.44402 16.7638 8.42916 16.7344C8.41431 16.705 8.40762 16.672 8.4098 16.6391C8.41199 16.6061 8.42297 16.5743 8.44157 16.5472L8.54377 16.3985C8.80334 16.0169 9.17808 15.4303 9.55121 14.7596C9.80428 14.3069 10.0509 13.8245 10.2488 13.3387C10.2877 13.2528 10.3185 13.1619 10.3542 13.0744C10.4078 12.9191 10.4629 12.7737 10.5019 12.63C10.5401 12.5081 10.5752 12.3852 10.6073 12.2615C10.6998 11.8485 10.7387 11.4123 10.7387 10.9613C10.7387 10.7829 10.7322 10.5962 10.716 10.421C10.7079 10.2277 10.6836 10.0328 10.6608 9.83947C10.6427 9.66652 10.6167 9.49451 10.583 9.324C10.5393 9.06437 10.4863 8.80646 10.424 8.5508L10.4013 8.45167C10.3526 8.27324 10.3104 8.10472 10.2553 7.92794C10.1008 7.38506 9.92327 6.84926 9.72317 6.32205C9.65345 6.12374 9.57661 5.92811 9.49281 5.73554C9.376 5.44146 9.25595 5.17546 9.14726 4.92599C9.09318 4.81911 9.04232 4.71057 8.99477 4.60052C8.942 4.48179 8.88629 4.36445 8.82767 4.24861C8.78874 4.16104 8.74169 4.07678 8.71087 3.99748L8.36857 3.35645C8.32152 3.26888 8.39939 3.16149 8.49348 3.18958L10.6349 3.7794H10.6511L10.9318 3.862L11.2432 3.95122L11.3568 3.98261V2.68898C11.3568 2.06282 11.8467 1.55561 12.4583 1.55561C12.6027 1.55521 12.7458 1.58457 12.8787 1.64193C13.0117 1.69928 13.1319 1.78344 13.2322 1.88934C13.4393 2.10211 13.5558 2.38937 13.5566 2.68898V4.61208L13.7854 4.67651C13.8016 4.68477 13.821 4.69304 13.8356 4.7046C13.8908 4.74425 13.9719 4.80703 14.0741 4.88634C14.1552 4.94912 14.2412 5.02842 14.3418 5.11268C14.6621 5.37848 14.9728 5.65623 15.273 5.94536C15.6202 6.27414 16.0095 6.65909 16.3826 7.087C16.4881 7.20926 16.5886 7.32821 16.6941 7.46038C16.7947 7.5909 16.9082 7.71812 17.0023 7.84368C17.1305 8.0155 17.2619 8.19394 17.3836 8.37898C17.4371 8.46654 17.5036 8.55741 17.5539 8.64497C17.7096 8.87958 17.8427 9.12079 17.9708 9.36366C18.026 9.47435 18.0795 9.59661 18.1266 9.71556C18.271 10.041 18.3845 10.3698 18.4543 10.7035C18.4773 10.7744 18.4931 10.8475 18.5013 10.9216V10.9382C18.524 11.0323 18.5321 11.1364 18.5402 11.2421C18.5859 11.7305 18.5273 12.2231 18.3683 12.6861C18.318 12.8249 18.271 12.967 18.2093 13.1058C18.0876 13.3866 17.9481 13.6725 17.781 13.9351C17.7259 14.0343 17.6594 14.1367 17.5977 14.2358C17.5279 14.3399 17.4533 14.4391 17.3917 14.5332C17.3025 14.6583 17.2089 14.7801 17.111 14.8984C17.025 15.0173 16.9391 15.1363 16.8417 15.2437C16.7103 15.4056 16.5822 15.5576 16.4443 15.7029C16.3664 15.7988 16.282 15.8979 16.1912 15.9838C16.1068 16.0829 16.016 16.1705 15.9381 16.2498C15.8018 16.3886 15.6948 16.4927 15.6007 16.5835L15.3784 16.7851C15.3475 16.8167 15.3055 16.8346 15.2616 16.8347H13.5566V19.0585H15.7013C16.1798 19.0585 16.6357 18.8866 17.0056 18.5661C17.1305 18.4554 17.6788 17.9713 18.3294 17.2411C18.3505 17.2162 18.379 17.1989 18.4105 17.1915L24.3318 15.4452C24.3578 15.4376 24.3852 15.4361 24.4118 15.4411C24.4384 15.446 24.4636 15.4571 24.4853 15.4736C24.5069 15.4901 24.5246 15.5115 24.5368 15.5361C24.549 15.5607 24.5555 15.5878 24.5557 15.6154V16.8925Z" fill="black"/>
</g>
<defs>
<clipPath id="clip0_15717_510">
<rect width="24.8889" height="24.8889" fill="white" transform="translate(0.555664 0.555557)"/>
</clipPath>
</defs>
</svg>
