<svg width="128" height="56" viewBox="0 0 128 56" fill="none" xmlns="http://www.w3.org/2000/svg">
<path fill-rule="evenodd" clip-rule="evenodd" d="M103.575 0.804825C103.575 0.804825 105.784 5.48836 106.875 8.63714C107.965 11.7859 109.041 15.3562 109.041 15.3562C109.041 15.3562 111.226 15.032 117.564 11.9841C121.193 10.2682 124.683 8.26729 128 5.99995C126.266 9.44071 123.765 12.4299 120.693 14.733C115.659 18.4582 111.29 18.8653 111.29 18.8653C111.29 18.8653 112.005 19.8452 114.987 22.468C117.968 25.0908 119.327 25.6636 119.327 25.6636C119.327 25.6636 111.047 25.0367 106.975 21.8808C102.903 18.7248 102.66 14.4051 102.742 11.685C102.824 8.96499 103.414 3.4168 103.496 2.10901L103.575 0.804825Z" fill="#FF871F"/>
<path fill-rule="evenodd" clip-rule="evenodd" d="M108.134 30.5661C108.134 30.5661 111.434 29.2656 113.972 29.125C116.51 28.9845 117.382 29.6582 117.043 32.0324C116.703 34.4066 115.441 36.6763 113.886 38.6326C112.331 40.5889 110.958 42.3975 111.434 43.1144C111.909 43.8314 114.093 43.7413 115.67 43.327C117.172 42.8806 118.638 42.3219 120.057 41.6553C120.461 41.4536 120.582 41.9615 119.288 43.2045C117.994 44.4474 114.236 46.1623 112.013 46.7315C109.789 47.3008 107.626 47.2431 106.596 46.1011C105.567 44.959 106.192 42.8802 106.9 41.1257C107.608 39.3712 109.124 36.5214 107.383 35.3181C105.642 34.1148 103.679 34.3814 103.039 34.3814C102.399 34.3814 102.578 33.9311 103.754 32.9403C104.93 31.9496 106.65 31.139 108.148 30.5481L108.134 30.5661ZM87.0122 7.05117C87.0122 7.05117 86.4866 12.2751 84.5489 20.2804C82.6112 28.2856 81.6031 32.6845 80.0836 38.8848C78.5642 45.0851 77.6597 48.3167 78.5178 48.6554C79.3758 48.9941 81.3528 48.2051 82.361 47.6034C83.3691 47.0017 83.5515 46.9261 83.6659 45.9498C83.7803 44.9734 84.0019 43.7881 84.0019 43.7881L88.6638 40.434C88.6638 40.434 89.5934 43.9322 93.9192 44.7573C98.2451 45.5823 102.01 40.4124 102.907 39.2379C103.804 38.0634 104.058 36.8781 103.729 36.9393C103.4 37.0006 101.448 38.9064 97.8447 39.4829C94.241 40.0593 93.197 37.9913 93.197 37.9913C93.197 37.9913 97.0438 35.1992 98.4953 30.7066C99.4593 27.8793 99.6652 24.8456 99.0924 21.9124C98.9616 21.1088 98.6429 20.3481 98.1628 19.6931C96.5292 23.7106 94.518 27.5614 92.1567 31.193C88.3528 36.9826 85.364 39.4793 85.0065 39.4793C84.649 39.4793 88.0561 28.9233 89.4361 24.2217C90.816 19.5202 91.6347 16.2201 90.741 12.4985C90.2053 10.2813 88.8778 8.34078 87.0122 7.04756V7.05117ZM63.9636 5.2498C63.9636 5.2498 66.4197 5.87668 67.5387 10.0847C68.6577 14.2926 66.9524 18.1043 64.1424 25.5764C61.3323 33.0484 60.006 39.8467 60.2813 39.8467C60.5565 39.8467 62.934 38.0454 67.031 32.1405C69.4421 28.7322 71.3395 24.9832 72.6618 21.0153C72.6618 21.0153 73.2552 21.5161 73.9059 23.177C74.5566 24.8378 75.1214 27.9361 73.5484 31.6325C71.9754 35.3289 68.243 38.1967 68.243 38.1967C68.243 38.1967 69.7052 39.6918 72.6475 39.6378C75.5898 39.5837 78.0744 37.2492 78.0744 37.2492C78.1507 37.5479 78.1371 37.8627 78.0351 38.1535C77.8814 38.7839 77.4381 39.5693 76.1868 40.9456C74.9355 42.3218 71.246 46.1371 68.0892 45.2688C64.9324 44.4006 63.9529 41.0248 63.9529 41.0248L59.3875 44.3285C59.3654 44.9074 59.3129 45.4846 59.2302 46.0578C59.1515 46.2524 55.7981 48.6122 54.9401 49.0841C54.0821 49.5561 53.5351 49.0445 53.5351 48.2987C53.8759 44.4464 54.4393 40.6174 55.2225 36.8313C56.1306 32.8899 57.5606 27.7776 59.7879 19.9921C62.0152 12.2067 63.9636 5.2498 63.9636 5.2498ZM40.0856 41.7274C42.4667 40.6228 44.7509 39.3176 46.914 37.8256C50.3425 35.4406 52.509 32.1874 52.8379 31.0489C53.1669 29.9104 51.7654 27.1255 46.8282 26.6139C41.891 26.1024 37.8512 28.754 35.9493 33.034C34.0473 37.314 34.0044 40.1674 34.0044 40.1674C34.0044 40.1674 32.5744 40.6574 31.5519 40.9276C30.5294 41.1978 29.8037 41.1509 30.6653 41.7958C31.447 42.3059 32.3286 42.6401 33.2501 42.7758C33.6026 42.8541 33.9617 42.8987 34.3226 42.9091C34.3226 42.9091 34.7623 45.6976 36.3997 47.326C38.0371 48.9544 41.0473 49.0661 43.5499 48.1042C46.0524 47.1423 49.388 45.0527 50.8466 43.5575C52.3053 42.0624 52.3267 41.5076 51.9728 41.6841C51.6188 41.8607 48.0867 43.6764 44.7261 43.9791C41.2118 44.2925 40.0785 41.7274 40.0785 41.7274H40.0856ZM39.3527 37.6923C39.3527 37.6923 38.7807 31.9856 42.0734 30.4472C45.366 28.9089 47.2036 31.5281 47.2036 31.5281C46.1756 32.7573 45.0269 33.8786 43.7751 34.875C42.3827 35.9353 40.9032 36.8742 39.3527 37.6815V37.6923ZM37.8297 2.70989C37.8297 2.70989 35.1055 8.29771 32.9462 19.0915C30.7868 29.8852 28.2235 45.9822 27.9411 47.7799C27.8755 48.4169 27.6778 49.0329 27.3605 49.5878C27.0433 50.1427 26.6138 50.6241 26.0999 51.0008C25.2562 51.7213 23.9906 51.7213 22.1673 50.0064C20.344 48.2915 16.6259 41.486 13.8588 34.5724C11.0917 27.6587 10.0549 27.0066 10.0549 27.0066C10.0549 27.0066 8.88231 34.8642 7.55238 40.1674C6.22245 45.4706 4.35983 51.9555 3.26228 53.9442C2.16473 55.9329 2.22908 56.3112 1.11723 54.463C0.589798 53.6168 0.239144 52.6711 0.0866993 51.6837C-0.0657451 50.6963 -0.0167775 49.6879 0.230609 48.7202C1.54639 43.4937 2.59645 38.2028 3.37668 32.8683C4.35983 25.7673 4.50283 19.5634 3.93439 15.6365C3.36596 11.7095 6.3297 10.9961 7.83123 10.4269C8.9789 10.0319 10.1566 9.73188 11.3527 9.52984C11.3527 9.52984 13.1831 16.8181 15.6714 25.0215C18.1596 33.2249 20.1295 37.6599 21.6775 40.2647C23.2255 42.8694 24.0264 43.3414 24.1193 43.0568C24.2123 42.7722 25.9068 36.3845 26.7005 26.2501C27.3262 18.3241 27.5907 11.1763 29.5606 7.33578C30.0481 6.37146 30.7794 5.55376 31.6806 4.96519C34.9983 2.85039 37.769 2.63423 37.8297 2.70989Z" fill="white"/>
</svg>
